<svg xmlns="http://www.w3.org/2000/svg" viewBox="0 0 213.69 89.05"><defs><style>.cls-1,.cls-2{fill:#0077a2;}.cls-2{fill-rule:evenodd;}</style></defs><g id="Warstwa_2" data-name="Warstwa 2"><g id="Warstwa_1-2" data-name="Warstwa 1"><path class="cls-1" d="M109.73,9.66h-12V0h35.09V9.66h-12V42.93H109.73Z"/><path class="cls-1" d="M138.05,0h31.48V9.33H149.12v7.15h20v9.4h-20V33.6h20.41v9.33H138.05Z"/><path class="cls-1" d="M176,0H200.3c8.49,0,12.55,5.54,12.55,10.94s-3.28,9-7.34,9.85c4.57.71,8.18,5.09,8.18,10.49,0,6.25-4.19,11.65-12.62,11.65H176Zm21.83,16.61a3.63,3.63,0,0,0,3.79-3.74,3.57,3.57,0,0,0-3.79-3.66H187v7.4Zm.38,17.12c2.64,0,4.25-1.61,4.25-3.93a4,4,0,0,0-4.25-4.05H187v8Z"/><path class="cls-2" d="M42.84,74.59,10.08,41.35V17.46L54.62,62.64Zm42.85-29V0H42.84V10.23H75.61V41.35L61.75,55.41,7.13,0H0V45.58L42.84,89.05Z"/><path class="cls-2" d="M98.32,68.29h7.51V66.05h-5V56.3H98.32Zm9.27,0h2.51v-12h-2.51Zm10.48.22a5.5,5.5,0,0,0,5-3l-2.17-1.06a3.19,3.19,0,0,1-2.87,1.74,3.95,3.95,0,0,1,0-7.87,3.22,3.22,0,0,1,2.87,1.74L123.11,59a5.45,5.45,0,0,0-5-2.92,6.2,6.2,0,1,0,0,12.4m6.54-.22H133V66.08h-5.84V63.29h5.72V61.1h-5.72V58.5H133V56.3h-8.36Zm10.33-4.78c0,2.95,1.68,5,5.3,5s5.26-2,5.26-5V56.3H143v7.12a2.73,2.73,0,1,1-5.46,0V56.3h-2.55Zm23.17,4.78h2.54v-12H157.1l-2.87,7.48-2.87-7.48h-3.52v12h2.51V59.66l3.34,8.63h1.09l3.33-8.63Z"/></g></g></svg>